<svg width="424" height="39" viewBox="0 0 424 39" fill="none" xmlns="http://www.w3.org/2000/svg">
<path d="M16.5041 3.77604L28.2161 33.968C28.6961 35.184 29.2401 36 29.8481 36.416C30.4561 36.8 31.0161 37.008 31.5281 37.04V38C30.8881 37.936 30.1041 37.904 29.1761 37.904C28.2481 37.872 27.3201 37.856 26.3921 37.856C25.1441 37.856 23.9761 37.872 22.8881 37.904C21.8001 37.904 20.9201 37.936 20.2481 38V37.04C21.8801 36.976 22.9201 36.704 23.3681 36.224C23.8161 35.712 23.7201 34.64 23.0801 33.008L14.1521 9.15204L14.9201 8.52804L6.56806 30.224C6.05606 31.504 5.75206 32.592 5.65606 33.488C5.56006 34.352 5.64006 35.04 5.89606 35.552C6.18406 36.064 6.64806 36.432 7.28806 36.656C7.96006 36.88 8.79206 37.008 9.78406 37.04V38C8.88806 37.936 7.94406 37.904 6.95206 37.904C5.99206 37.872 5.09606 37.856 4.26406 37.856C3.46406 37.856 2.77606 37.872 2.20006 37.904C1.65606 37.904 1.14406 37.936 0.664062 38V37.04C1.30406 36.88 1.96006 36.512 2.63206 35.936C3.30406 35.328 3.91206 34.304 4.45606 32.864L15.7361 3.77604C15.8641 3.77604 15.9921 3.77604 16.1201 3.77604C16.2481 3.77604 16.3761 3.77604 16.5041 3.77604ZM22.3601 24.176V25.136H8.05606L8.53606 24.176H22.3601Z" fill="#FAFAFA"/>
<path d="M39.0584 0.368042V33.536C39.0584 34.88 39.3304 35.792 39.8744 36.272C40.4504 36.752 41.3944 36.992 42.7064 36.992V38C42.1624 37.968 41.3304 37.936 40.2104 37.904C39.1224 37.84 38.0184 37.808 36.8984 37.808C35.8104 37.808 34.7064 37.84 33.5864 37.904C32.4664 37.936 31.6344 37.968 31.0904 38V36.992C32.4024 36.992 33.3304 36.752 33.8744 36.272C34.4504 35.792 34.7384 34.88 34.7384 33.536V6.12804C34.7384 4.68804 34.4824 3.63204 33.9704 2.96004C33.4584 2.25604 32.4984 1.90404 31.0904 1.90404V0.896041C32.1144 0.992042 33.1064 1.04004 34.0664 1.04004C34.9944 1.04004 35.8744 0.992042 36.7064 0.896041C37.5704 0.768043 38.3544 0.592043 39.0584 0.368042Z" fill="#FAFAFA"/>
<path d="M55.1561 12.608C57.9721 12.608 60.1641 13.472 61.7321 15.2C63.3321 16.896 64.1321 19.552 64.1321 23.168H47.1881L47.1401 22.256H59.5241C59.5881 20.688 59.4601 19.248 59.1401 17.936C58.8201 16.592 58.3081 15.52 57.6041 14.72C56.9321 13.92 56.0521 13.52 54.9641 13.52C53.4921 13.52 52.1801 14.256 51.0281 15.728C49.9081 17.2 49.2361 19.536 49.0121 22.736L49.1561 22.928C49.0921 23.408 49.0441 23.936 49.0121 24.512C48.9801 25.088 48.9641 25.664 48.9641 26.24C48.9641 28.416 49.3161 30.288 50.0201 31.856C50.7241 33.424 51.6361 34.624 52.7561 35.456C53.9081 36.256 55.0921 36.656 56.3081 36.656C57.2681 36.656 58.1801 36.512 59.0441 36.224C59.9081 35.904 60.7081 35.392 61.4441 34.688C62.1801 33.984 62.8201 33.04 63.3641 31.856L64.3241 32.24C63.9721 33.296 63.3961 34.32 62.5961 35.312C61.7961 36.304 60.7881 37.12 59.5721 37.76C58.3561 38.368 56.9481 38.672 55.3481 38.672C53.0441 38.672 51.0601 38.144 49.3961 37.088C47.7641 36.032 46.5001 34.576 45.6041 32.72C44.7401 30.832 44.3081 28.672 44.3081 26.24C44.3081 23.424 44.7561 21.008 45.6521 18.992C46.5481 16.944 47.8121 15.376 49.4441 14.288C51.0761 13.168 52.9801 12.608 55.1561 12.608Z" fill="#FAFAFA"/>
<path d="M74.7011 13.28V14.288C74.0931 14.288 73.5811 14.432 73.1651 14.72C72.7491 15.008 72.7011 15.408 73.0211 15.92L85.8371 34.592C86.3811 35.392 86.8611 35.968 87.2771 36.32C87.6931 36.64 88.2051 36.864 88.8131 36.992V38C88.4931 37.968 87.9971 37.936 87.3251 37.904C86.6851 37.84 86.0451 37.808 85.4051 37.808C84.4131 37.808 83.3411 37.84 82.1891 37.904C81.0691 37.936 80.2531 37.968 79.7411 38V36.992C80.3811 36.992 80.9091 36.848 81.3251 36.56C81.7411 36.24 81.7731 35.84 81.4211 35.36L68.6051 16.688C67.9651 15.76 67.4531 15.152 67.0691 14.864C66.6851 14.544 66.2051 14.352 65.6291 14.288V13.28C65.9491 13.312 66.4451 13.36 67.1171 13.424C67.7891 13.456 68.4291 13.472 69.0371 13.472C70.0611 13.472 71.1331 13.456 72.2531 13.424C73.3731 13.36 74.1891 13.312 74.7011 13.28ZM75.9971 25.472C75.9971 25.472 76.0291 25.584 76.0931 25.808C76.1571 26 76.2211 26.208 76.2851 26.432C76.3811 26.656 76.4291 26.768 76.4291 26.768L72.4451 31.952C71.6131 33.04 71.1651 33.952 71.1011 34.688C71.0691 35.424 71.3731 35.984 72.0131 36.368C72.6531 36.72 73.5331 36.944 74.6531 37.04V38C74.1091 37.968 73.5011 37.952 72.8291 37.952C72.1571 37.92 71.5011 37.904 70.8611 37.904C70.2531 37.872 69.6931 37.856 69.1811 37.856C68.4451 37.856 67.7731 37.872 67.1651 37.904C66.5891 37.904 66.0451 37.936 65.5331 38V37.04C66.1411 36.976 66.7651 36.704 67.4051 36.224C68.0771 35.712 68.8611 34.864 69.7571 33.68L75.9971 25.472ZM87.8531 13.28V14.24C87.2451 14.304 86.5731 14.624 85.8371 15.2C85.1331 15.744 84.3971 16.544 83.6291 17.6L78.1091 25.232C78.1091 25.232 78.0771 25.136 78.0131 24.944C77.9491 24.72 77.8851 24.512 77.8211 24.32C77.7571 24.096 77.7251 23.984 77.7251 23.984L81.4691 18.752C82.1731 17.76 82.6211 16.944 82.8131 16.304C83.0051 15.664 82.8931 15.184 82.4771 14.864C82.0931 14.512 81.3251 14.304 80.1731 14.24V13.28C81.0051 13.312 81.6931 13.344 82.2371 13.376C82.8131 13.408 83.4691 13.424 84.2051 13.424C84.9411 13.424 85.5971 13.408 86.1731 13.376C86.7811 13.344 87.3411 13.312 87.8531 13.28Z" fill="#FAFAFA"/>
<path d="M96.4237 38.336C95.1117 38.336 93.9757 38.096 93.0157 37.616C92.0557 37.104 91.3197 36.4 90.8077 35.504C90.3277 34.608 90.0877 33.568 90.0877 32.384C90.0877 30.976 90.4077 29.824 91.0477 28.928C91.7197 28.032 92.5677 27.312 93.5917 26.768C94.6157 26.224 95.6877 25.776 96.8077 25.424C97.9597 25.04 99.0477 24.688 100.072 24.368C101.096 24.016 101.928 23.616 102.568 23.168C103.24 22.72 103.576 22.128 103.576 21.392V18.416C103.576 17.072 103.368 16.048 102.952 15.344C102.568 14.64 102.04 14.176 101.368 13.952C100.696 13.696 99.9437 13.568 99.1117 13.568C98.3117 13.568 97.4477 13.68 96.5197 13.904C95.6237 14.128 94.9037 14.592 94.3597 15.296C94.9677 15.424 95.4957 15.744 95.9437 16.256C96.3917 16.768 96.6157 17.424 96.6157 18.224C96.6157 19.024 96.3597 19.664 95.8477 20.144C95.3357 20.592 94.6797 20.816 93.8797 20.816C92.9517 20.816 92.2637 20.528 91.8157 19.952C91.3997 19.344 91.1917 18.672 91.1917 17.936C91.1917 17.104 91.3997 16.432 91.8157 15.92C92.2317 15.408 92.7597 14.928 93.3997 14.48C94.1357 13.968 95.0797 13.536 96.2317 13.184C97.4157 12.8 98.7437 12.608 100.216 12.608C101.528 12.608 102.648 12.768 103.576 13.088C104.504 13.376 105.272 13.808 105.88 14.384C106.712 15.152 107.256 16.096 107.512 17.216C107.768 18.304 107.896 19.616 107.896 21.152V34.496C107.896 35.296 108.008 35.872 108.232 36.224C108.488 36.576 108.872 36.752 109.384 36.752C109.736 36.752 110.072 36.672 110.392 36.512C110.712 36.352 111.096 36.096 111.544 35.744L112.072 36.56C111.4 37.072 110.76 37.504 110.152 37.856C109.544 38.176 108.728 38.336 107.704 38.336C106.776 38.336 106.008 38.176 105.4 37.856C104.792 37.536 104.328 37.072 104.008 36.464C103.72 35.824 103.576 35.024 103.576 34.064C102.712 35.504 101.672 36.576 100.456 37.28C99.2717 37.984 97.9277 38.336 96.4237 38.336ZM98.1517 36.416C99.2077 36.416 100.184 36.112 101.08 35.504C102.008 34.896 102.84 33.984 103.576 32.768V23.36C103.192 23.904 102.632 24.368 101.896 24.752C101.16 25.104 100.36 25.472 99.4957 25.856C98.6317 26.208 97.7997 26.64 96.9997 27.152C96.2317 27.632 95.5917 28.272 95.0797 29.072C94.5677 29.872 94.3117 30.912 94.3117 32.192C94.3117 33.472 94.6477 34.496 95.3197 35.264C96.0237 36.032 96.9677 36.416 98.1517 36.416Z" fill="#FAFAFA"/>
<path d="M128.442 12.608C129.658 12.608 130.666 12.768 131.466 13.088C132.298 13.408 132.986 13.856 133.53 14.432C134.138 15.072 134.57 15.872 134.826 16.832C135.082 17.792 135.21 19.088 135.21 20.72V33.536C135.21 34.88 135.482 35.792 136.026 36.272C136.602 36.752 137.546 36.992 138.858 36.992V38C138.314 37.968 137.482 37.936 136.362 37.904C135.242 37.84 134.154 37.808 133.098 37.808C132.042 37.808 131.002 37.84 129.978 37.904C128.986 37.936 128.234 37.968 127.722 38V36.992C128.874 36.992 129.69 36.752 130.17 36.272C130.65 35.792 130.89 34.88 130.89 33.536V19.664C130.89 18.672 130.81 17.76 130.65 16.928C130.49 16.096 130.122 15.424 129.546 14.912C129.002 14.4 128.154 14.144 127.002 14.144C125.658 14.144 124.474 14.528 123.45 15.296C122.458 16.064 121.674 17.12 121.098 18.464C120.554 19.776 120.282 21.248 120.282 22.88V33.536C120.282 34.88 120.522 35.792 121.002 36.272C121.482 36.752 122.298 36.992 123.45 36.992V38C122.938 37.968 122.17 37.936 121.146 37.904C120.154 37.84 119.13 37.808 118.074 37.808C117.018 37.808 115.93 37.84 114.81 37.904C113.69 37.936 112.858 37.968 112.314 38V36.992C113.626 36.992 114.554 36.752 115.098 36.272C115.674 35.792 115.962 34.88 115.962 33.536V18.512C115.962 17.072 115.706 16.016 115.194 15.344C114.682 14.64 113.722 14.288 112.314 14.288V13.28C113.338 13.376 114.33 13.424 115.29 13.424C116.218 13.424 117.098 13.376 117.93 13.28C118.794 13.152 119.578 12.976 120.282 12.752V18.416C121.114 16.24 122.266 14.736 123.738 13.904C125.242 13.04 126.81 12.608 128.442 12.608Z" fill="#FAFAFA"/>
<path d="M161.595 0.368042V32.768C161.595 34.208 161.851 35.28 162.363 35.984C162.907 36.656 163.867 36.992 165.243 36.992V38C164.251 37.904 163.259 37.856 162.267 37.856C161.339 37.856 160.443 37.904 159.579 38C158.747 38.096 157.979 38.272 157.275 38.528V6.12804C157.275 4.68804 157.019 3.63204 156.507 2.96004C155.995 2.25604 155.035 1.90404 153.627 1.90404V0.896041C154.651 0.992042 155.643 1.04004 156.603 1.04004C157.531 1.04004 158.411 0.992042 159.243 0.896041C160.107 0.768043 160.891 0.592043 161.595 0.368042ZM151.515 12.608C152.923 12.608 154.235 12.944 155.451 13.616C156.699 14.288 157.531 15.44 157.947 17.072L157.323 17.552C156.875 16.208 156.171 15.232 155.211 14.624C154.283 14.016 153.179 13.712 151.899 13.712C150.011 13.712 148.427 14.688 147.147 16.64C145.899 18.592 145.291 21.6 145.323 25.664C145.323 28.256 145.563 30.416 146.043 32.144C146.555 33.84 147.291 35.12 148.251 35.984C149.243 36.816 150.443 37.232 151.851 37.232C153.195 37.232 154.411 36.656 155.499 35.504C156.587 34.352 157.243 32.656 157.467 30.416L158.043 31.088C157.787 33.52 157.003 35.392 155.691 36.704C154.411 38.016 152.667 38.672 150.459 38.672C148.475 38.672 146.731 38.192 145.227 37.232C143.755 36.272 142.619 34.832 141.819 32.912C141.051 30.992 140.667 28.576 140.667 25.664C140.667 22.752 141.163 20.336 142.155 18.416C143.179 16.464 144.507 15.008 146.139 14.048C147.803 13.088 149.595 12.608 151.515 12.608Z" fill="#FAFAFA"/>
<path d="M181.373 12.608C182.237 12.608 182.989 12.784 183.629 13.136C184.301 13.488 184.813 13.952 185.165 14.528C185.549 15.072 185.741 15.696 185.741 16.4C185.741 17.2 185.485 17.904 184.973 18.512C184.493 19.12 183.837 19.424 183.005 19.424C182.333 19.424 181.741 19.216 181.229 18.8C180.717 18.352 180.461 17.728 180.461 16.928C180.461 16.32 180.621 15.808 180.941 15.392C181.293 14.944 181.677 14.592 182.093 14.336C181.869 14.016 181.533 13.856 181.085 13.856C180.093 13.856 179.181 14.16 178.349 14.768C177.517 15.344 176.813 16.096 176.237 17.024C175.661 17.952 175.213 18.944 174.893 20C174.573 21.024 174.413 21.984 174.413 22.88V33.056C174.413 34.624 174.861 35.68 175.757 36.224C176.685 36.736 177.933 36.992 179.501 36.992V38C178.765 37.968 177.725 37.936 176.381 37.904C175.037 37.84 173.613 37.808 172.109 37.808C171.021 37.808 169.933 37.84 168.845 37.904C167.789 37.936 166.989 37.968 166.445 38V36.992C167.757 36.992 168.685 36.752 169.229 36.272C169.805 35.792 170.093 34.88 170.093 33.536V18.512C170.093 17.072 169.837 16.016 169.325 15.344C168.813 14.64 167.853 14.288 166.445 14.288V13.28C167.469 13.376 168.461 13.424 169.421 13.424C170.349 13.424 171.229 13.376 172.061 13.28C172.925 13.152 173.709 12.976 174.413 12.752V18.752C174.765 17.824 175.261 16.896 175.901 15.968C176.573 15.008 177.373 14.208 178.301 13.568C179.229 12.928 180.253 12.608 181.373 12.608Z" fill="#FAFAFA"/>
<path d="M197.443 12.608C199.491 12.608 201.331 13.056 202.963 13.952C204.595 14.848 205.891 16.256 206.851 18.176C207.843 20.096 208.339 22.592 208.339 25.664C208.339 28.736 207.843 31.232 206.851 33.152C205.891 35.04 204.595 36.432 202.963 37.328C201.331 38.224 199.491 38.672 197.443 38.672C195.427 38.672 193.587 38.224 191.923 37.328C190.291 36.432 188.979 35.04 187.987 33.152C187.027 31.232 186.547 28.736 186.547 25.664C186.547 22.592 187.027 20.096 187.987 18.176C188.979 16.256 190.291 14.848 191.923 13.952C193.587 13.056 195.427 12.608 197.443 12.608ZM197.443 13.568C195.619 13.568 194.115 14.512 192.931 16.4C191.779 18.288 191.203 21.376 191.203 25.664C191.203 29.952 191.779 33.04 192.931 34.928C194.115 36.784 195.619 37.712 197.443 37.712C199.267 37.712 200.755 36.784 201.907 34.928C203.091 33.04 203.683 29.952 203.683 25.664C203.683 21.376 203.091 18.288 201.907 16.4C200.755 14.512 199.267 13.568 197.443 13.568Z" fill="#FAFAFA"/>
<path d="M232.387 13.28V14.24C231.779 14.304 231.219 14.576 230.707 15.056C230.195 15.536 229.715 16.384 229.267 17.6L221.395 38.24C221.267 38.24 221.139 38.24 221.011 38.24C220.883 38.24 220.739 38.24 220.579 38.24L211.747 16.976C211.235 15.728 210.723 14.976 210.211 14.72C209.731 14.432 209.315 14.288 208.963 14.288V13.28C209.603 13.312 210.259 13.36 210.931 13.424C211.635 13.456 212.387 13.472 213.187 13.472C214.179 13.472 215.219 13.456 216.307 13.424C217.427 13.392 218.467 13.344 219.427 13.28V14.288C218.627 14.288 217.907 14.352 217.267 14.48C216.659 14.576 216.259 14.88 216.067 15.392C215.907 15.904 216.067 16.784 216.547 18.032L222.547 32.864L222.259 33.104L227.731 18.752C228.147 17.696 228.307 16.864 228.211 16.256C228.147 15.616 227.827 15.136 227.251 14.816C226.707 14.496 225.859 14.304 224.707 14.24V13.28C225.283 13.312 225.779 13.344 226.195 13.376C226.611 13.376 227.011 13.392 227.395 13.424C227.811 13.424 228.259 13.424 228.739 13.424C229.475 13.424 230.131 13.408 230.707 13.376C231.315 13.344 231.875 13.312 232.387 13.28Z" fill="#FAFAFA"/>
<path d="M254.695 3.77604L266.407 33.968C266.887 35.184 267.431 36 268.039 36.416C268.647 36.8 269.207 37.008 269.719 37.04V38C269.079 37.936 268.295 37.904 267.367 37.904C266.439 37.872 265.511 37.856 264.583 37.856C263.335 37.856 262.167 37.872 261.079 37.904C259.991 37.904 259.111 37.936 258.439 38V37.04C260.071 36.976 261.111 36.704 261.559 36.224C262.007 35.712 261.911 34.64 261.271 33.008L252.343 9.15204L253.111 8.52804L244.759 30.224C244.247 31.504 243.943 32.592 243.847 33.488C243.751 34.352 243.831 35.04 244.087 35.552C244.375 36.064 244.839 36.432 245.479 36.656C246.151 36.88 246.983 37.008 247.975 37.04V38C247.079 37.936 246.135 37.904 245.143 37.904C244.183 37.872 243.287 37.856 242.455 37.856C241.655 37.856 240.967 37.872 240.391 37.904C239.847 37.904 239.335 37.936 238.855 38V37.04C239.495 36.88 240.151 36.512 240.823 35.936C241.495 35.328 242.103 34.304 242.647 32.864L253.927 3.77604C254.055 3.77604 254.183 3.77604 254.311 3.77604C254.439 3.77604 254.567 3.77604 254.695 3.77604ZM260.551 24.176V25.136H246.247L246.727 24.176H260.551Z" fill="#FAFAFA"/>
<path d="M277.249 0.368042V33.536C277.249 34.88 277.521 35.792 278.065 36.272C278.641 36.752 279.585 36.992 280.897 36.992V38C280.353 37.968 279.521 37.936 278.401 37.904C277.313 37.84 276.209 37.808 275.089 37.808C274.001 37.808 272.897 37.84 271.777 37.904C270.657 37.936 269.825 37.968 269.281 38V36.992C270.593 36.992 271.521 36.752 272.065 36.272C272.641 35.792 272.929 34.88 272.929 33.536V6.12804C272.929 4.68804 272.673 3.63204 272.161 2.96004C271.649 2.25604 270.689 1.90404 269.281 1.90404V0.896041C270.305 0.992042 271.297 1.04004 272.257 1.04004C273.185 1.04004 274.065 0.992042 274.897 0.896041C275.761 0.768043 276.545 0.592043 277.249 0.368042Z" fill="#FAFAFA"/>
<path d="M293.347 12.608C296.163 12.608 298.355 13.472 299.923 15.2C301.523 16.896 302.323 19.552 302.323 23.168H285.379L285.331 22.256H297.715C297.779 20.688 297.651 19.248 297.331 17.936C297.011 16.592 296.499 15.52 295.795 14.72C295.123 13.92 294.243 13.52 293.155 13.52C291.683 13.52 290.371 14.256 289.219 15.728C288.099 17.2 287.427 19.536 287.203 22.736L287.347 22.928C287.283 23.408 287.235 23.936 287.203 24.512C287.171 25.088 287.155 25.664 287.155 26.24C287.155 28.416 287.507 30.288 288.211 31.856C288.915 33.424 289.827 34.624 290.947 35.456C292.099 36.256 293.283 36.656 294.499 36.656C295.459 36.656 296.371 36.512 297.235 36.224C298.099 35.904 298.899 35.392 299.635 34.688C300.371 33.984 301.011 33.04 301.555 31.856L302.515 32.24C302.163 33.296 301.587 34.32 300.787 35.312C299.987 36.304 298.979 37.12 297.763 37.76C296.547 38.368 295.139 38.672 293.539 38.672C291.235 38.672 289.251 38.144 287.587 37.088C285.955 36.032 284.691 34.576 283.795 32.72C282.931 30.832 282.499 28.672 282.499 26.24C282.499 23.424 282.947 21.008 283.843 18.992C284.739 16.944 286.003 15.376 287.635 14.288C289.267 13.168 291.171 12.608 293.347 12.608Z" fill="#FAFAFA"/>
<path d="M312.892 13.28V14.288C312.284 14.288 311.772 14.432 311.356 14.72C310.94 15.008 310.892 15.408 311.212 15.92L324.028 34.592C324.572 35.392 325.052 35.968 325.468 36.32C325.884 36.64 326.396 36.864 327.004 36.992V38C326.684 37.968 326.188 37.936 325.516 37.904C324.876 37.84 324.236 37.808 323.596 37.808C322.604 37.808 321.532 37.84 320.38 37.904C319.26 37.936 318.444 37.968 317.932 38V36.992C318.572 36.992 319.1 36.848 319.516 36.56C319.932 36.24 319.964 35.84 319.612 35.36L306.796 16.688C306.156 15.76 305.644 15.152 305.26 14.864C304.876 14.544 304.396 14.352 303.82 14.288V13.28C304.14 13.312 304.636 13.36 305.308 13.424C305.98 13.456 306.62 13.472 307.228 13.472C308.252 13.472 309.324 13.456 310.444 13.424C311.564 13.36 312.38 13.312 312.892 13.28ZM314.188 25.472C314.188 25.472 314.22 25.584 314.284 25.808C314.348 26 314.412 26.208 314.476 26.432C314.572 26.656 314.62 26.768 314.62 26.768L310.636 31.952C309.804 33.04 309.356 33.952 309.292 34.688C309.26 35.424 309.564 35.984 310.204 36.368C310.844 36.72 311.724 36.944 312.844 37.04V38C312.3 37.968 311.692 37.952 311.02 37.952C310.348 37.92 309.692 37.904 309.052 37.904C308.444 37.872 307.884 37.856 307.372 37.856C306.636 37.856 305.964 37.872 305.356 37.904C304.78 37.904 304.236 37.936 303.724 38V37.04C304.332 36.976 304.956 36.704 305.596 36.224C306.268 35.712 307.052 34.864 307.948 33.68L314.188 25.472ZM326.044 13.28V14.24C325.436 14.304 324.764 14.624 324.028 15.2C323.324 15.744 322.588 16.544 321.82 17.6L316.3 25.232C316.3 25.232 316.268 25.136 316.204 24.944C316.14 24.72 316.076 24.512 316.012 24.32C315.948 24.096 315.916 23.984 315.916 23.984L319.66 18.752C320.364 17.76 320.812 16.944 321.004 16.304C321.196 15.664 321.084 15.184 320.668 14.864C320.284 14.512 319.516 14.304 318.364 14.24V13.28C319.196 13.312 319.884 13.344 320.428 13.376C321.004 13.408 321.66 13.424 322.396 13.424C323.132 13.424 323.788 13.408 324.364 13.376C324.972 13.344 325.532 13.312 326.044 13.28Z" fill="#FAFAFA"/>
<path d="M334.614 38.336C333.302 38.336 332.166 38.096 331.206 37.616C330.246 37.104 329.51 36.4 328.998 35.504C328.518 34.608 328.278 33.568 328.278 32.384C328.278 30.976 328.598 29.824 329.238 28.928C329.91 28.032 330.758 27.312 331.782 26.768C332.806 26.224 333.878 25.776 334.998 25.424C336.15 25.04 337.238 24.688 338.262 24.368C339.286 24.016 340.118 23.616 340.758 23.168C341.43 22.72 341.766 22.128 341.766 21.392V18.416C341.766 17.072 341.558 16.048 341.142 15.344C340.758 14.64 340.23 14.176 339.558 13.952C338.886 13.696 338.134 13.568 337.302 13.568C336.502 13.568 335.638 13.68 334.71 13.904C333.814 14.128 333.094 14.592 332.55 15.296C333.158 15.424 333.686 15.744 334.134 16.256C334.582 16.768 334.806 17.424 334.806 18.224C334.806 19.024 334.55 19.664 334.038 20.144C333.526 20.592 332.87 20.816 332.07 20.816C331.142 20.816 330.454 20.528 330.006 19.952C329.59 19.344 329.382 18.672 329.382 17.936C329.382 17.104 329.59 16.432 330.006 15.92C330.422 15.408 330.95 14.928 331.59 14.48C332.326 13.968 333.27 13.536 334.422 13.184C335.606 12.8 336.934 12.608 338.406 12.608C339.718 12.608 340.838 12.768 341.766 13.088C342.694 13.376 343.462 13.808 344.07 14.384C344.902 15.152 345.446 16.096 345.702 17.216C345.958 18.304 346.086 19.616 346.086 21.152V34.496C346.086 35.296 346.198 35.872 346.422 36.224C346.678 36.576 347.062 36.752 347.574 36.752C347.926 36.752 348.262 36.672 348.582 36.512C348.902 36.352 349.286 36.096 349.734 35.744L350.262 36.56C349.59 37.072 348.95 37.504 348.342 37.856C347.734 38.176 346.918 38.336 345.894 38.336C344.966 38.336 344.198 38.176 343.59 37.856C342.982 37.536 342.518 37.072 342.198 36.464C341.91 35.824 341.766 35.024 341.766 34.064C340.902 35.504 339.862 36.576 338.646 37.28C337.462 37.984 336.118 38.336 334.614 38.336ZM336.342 36.416C337.398 36.416 338.374 36.112 339.27 35.504C340.198 34.896 341.03 33.984 341.766 32.768V23.36C341.382 23.904 340.822 24.368 340.086 24.752C339.35 25.104 338.55 25.472 337.686 25.856C336.822 26.208 335.99 26.64 335.19 27.152C334.422 27.632 333.782 28.272 333.27 29.072C332.758 29.872 332.502 30.912 332.502 32.192C332.502 33.472 332.838 34.496 333.51 35.264C334.214 36.032 335.158 36.416 336.342 36.416Z" fill="#FAFAFA"/>
<path d="M366.633 12.608C367.849 12.608 368.857 12.768 369.657 13.088C370.489 13.408 371.177 13.856 371.721 14.432C372.329 15.072 372.761 15.872 373.017 16.832C373.273 17.792 373.401 19.088 373.401 20.72V33.536C373.401 34.88 373.673 35.792 374.217 36.272C374.793 36.752 375.737 36.992 377.049 36.992V38C376.505 37.968 375.673 37.936 374.553 37.904C373.433 37.84 372.345 37.808 371.289 37.808C370.233 37.808 369.193 37.84 368.169 37.904C367.177 37.936 366.425 37.968 365.913 38V36.992C367.065 36.992 367.881 36.752 368.361 36.272C368.841 35.792 369.081 34.88 369.081 33.536V19.664C369.081 18.672 369.001 17.76 368.841 16.928C368.681 16.096 368.313 15.424 367.737 14.912C367.193 14.4 366.345 14.144 365.193 14.144C363.849 14.144 362.665 14.528 361.641 15.296C360.649 16.064 359.865 17.12 359.289 18.464C358.745 19.776 358.473 21.248 358.473 22.88V33.536C358.473 34.88 358.713 35.792 359.193 36.272C359.673 36.752 360.489 36.992 361.641 36.992V38C361.129 37.968 360.361 37.936 359.337 37.904C358.345 37.84 357.321 37.808 356.265 37.808C355.209 37.808 354.121 37.84 353.001 37.904C351.881 37.936 351.049 37.968 350.505 38V36.992C351.817 36.992 352.745 36.752 353.289 36.272C353.865 35.792 354.153 34.88 354.153 33.536V18.512C354.153 17.072 353.897 16.016 353.385 15.344C352.873 14.64 351.913 14.288 350.505 14.288V13.28C351.529 13.376 352.521 13.424 353.481 13.424C354.409 13.424 355.289 13.376 356.121 13.28C356.985 13.152 357.769 12.976 358.473 12.752V18.416C359.305 16.24 360.457 14.736 361.929 13.904C363.433 13.04 365.001 12.608 366.633 12.608Z" fill="#FAFAFA"/>
<path d="M399.785 0.368042V32.768C399.785 34.208 400.041 35.28 400.553 35.984C401.097 36.656 402.057 36.992 403.433 36.992V38C402.441 37.904 401.449 37.856 400.457 37.856C399.529 37.856 398.633 37.904 397.769 38C396.937 38.096 396.169 38.272 395.465 38.528V6.12804C395.465 4.68804 395.209 3.63204 394.697 2.96004C394.185 2.25604 393.225 1.90404 391.817 1.90404V0.896041C392.841 0.992042 393.833 1.04004 394.793 1.04004C395.721 1.04004 396.601 0.992042 397.433 0.896041C398.297 0.768043 399.081 0.592043 399.785 0.368042ZM389.705 12.608C391.113 12.608 392.425 12.944 393.641 13.616C394.889 14.288 395.721 15.44 396.137 17.072L395.513 17.552C395.065 16.208 394.361 15.232 393.401 14.624C392.473 14.016 391.369 13.712 390.089 13.712C388.201 13.712 386.617 14.688 385.337 16.64C384.089 18.592 383.481 21.6 383.513 25.664C383.513 28.256 383.753 30.416 384.233 32.144C384.745 33.84 385.481 35.12 386.441 35.984C387.433 36.816 388.633 37.232 390.041 37.232C391.385 37.232 392.601 36.656 393.689 35.504C394.777 34.352 395.433 32.656 395.657 30.416L396.233 31.088C395.977 33.52 395.193 35.392 393.881 36.704C392.601 38.016 390.857 38.672 388.649 38.672C386.665 38.672 384.921 38.192 383.417 37.232C381.945 36.272 380.809 34.832 380.009 32.912C379.241 30.992 378.857 28.576 378.857 25.664C378.857 22.752 379.353 20.336 380.345 18.416C381.369 16.464 382.697 15.008 384.329 14.048C385.993 13.088 387.785 12.608 389.705 12.608Z" fill="#FAFAFA"/>
<path d="M419.564 12.608C420.428 12.608 421.18 12.784 421.82 13.136C422.492 13.488 423.004 13.952 423.356 14.528C423.74 15.072 423.932 15.696 423.932 16.4C423.932 17.2 423.676 17.904 423.164 18.512C422.684 19.12 422.028 19.424 421.196 19.424C420.524 19.424 419.932 19.216 419.42 18.8C418.908 18.352 418.652 17.728 418.652 16.928C418.652 16.32 418.812 15.808 419.132 15.392C419.484 14.944 419.868 14.592 420.284 14.336C420.06 14.016 419.724 13.856 419.276 13.856C418.284 13.856 417.372 14.16 416.54 14.768C415.708 15.344 415.004 16.096 414.428 17.024C413.852 17.952 413.404 18.944 413.084 20C412.764 21.024 412.604 21.984 412.604 22.88V33.056C412.604 34.624 413.052 35.68 413.948 36.224C414.876 36.736 416.124 36.992 417.692 36.992V38C416.956 37.968 415.916 37.936 414.572 37.904C413.228 37.84 411.804 37.808 410.3 37.808C409.212 37.808 408.124 37.84 407.036 37.904C405.98 37.936 405.18 37.968 404.636 38V36.992C405.948 36.992 406.876 36.752 407.42 36.272C407.996 35.792 408.284 34.88 408.284 33.536V18.512C408.284 17.072 408.028 16.016 407.516 15.344C407.004 14.64 406.044 14.288 404.636 14.288V13.28C405.66 13.376 406.652 13.424 407.612 13.424C408.54 13.424 409.42 13.376 410.252 13.28C411.116 13.152 411.9 12.976 412.604 12.752V18.752C412.956 17.824 413.452 16.896 414.092 15.968C414.764 15.008 415.564 14.208 416.492 13.568C417.42 12.928 418.444 12.608 419.564 12.608Z" fill="#FAFAFA"/>
</svg>
